<?xml version="1.0" encoding="UTF-8" standalone="no"?>
<!-- Created with Inkscape (http://www.inkscape.org/) -->

<svg
   xmlns:dc="http://purl.org/dc/elements/1.1/"
   xmlns:cc="http://creativecommons.org/ns#"
   xmlns:rdf="http://www.w3.org/1999/02/22-rdf-syntax-ns#"
   xmlns:svg="http://www.w3.org/2000/svg"
   xmlns="http://www.w3.org/2000/svg"
   xmlns:sodipodi="http://sodipodi.sourceforge.net/DTD/sodipodi-0.dtd"
   xmlns:inkscape="http://www.inkscape.org/namespaces/inkscape"
   width="256"
   height="256"
   id="svg2"
   version="1.1"
   inkscape:version="0.48.1 r9760"
   sodipodi:docname="bumblebee-indicator-active.svg">
  <defs
     id="defs4" />
  <sodipodi:namedview
     id="base"
     pagecolor="#ffffff"
     bordercolor="#666666"
     borderopacity="1.0"
     inkscape:pageopacity="0"
     inkscape:pageshadow="2"
     inkscape:zoom="17.21875"
     inkscape:cx="243.35378"
     inkscape:cy="118.86329"
     inkscape:document-units="px"
     inkscape:current-layer="g3303"
     showgrid="true"
     inkscape:window-width="1366"
     inkscape:window-height="712"
     inkscape:window-x="0"
     inkscape:window-y="26"
     inkscape:window-maximized="1"
     fit-margin-left="10"
     fit-margin-right="10"
     fit-margin-top="50"
     fit-margin-bottom="50"
     showborder="true"
     borderlayer="false"
     inkscape:showpageshadow="true"
     showguides="false"
     inkscape:snap-global="true">
    <inkscape:grid
       type="xygrid"
       id="grid4300"
       empspacing="5"
       visible="true"
       enabled="true"
       snapvisiblegridlinesonly="true" />
  </sodipodi:namedview>
  <metadata
     id="metadata7">
    <rdf:RDF>
      <cc:Work
         rdf:about="">
        <dc:format>image/svg+xml</dc:format>
        <dc:type
           rdf:resource="http://purl.org/dc/dcmitype/StillImage" />
        <dc:title></dc:title>
      </cc:Work>
    </rdf:RDF>
  </metadata>
  <g
     inkscape:label="Calque 1"
     inkscape:groupmode="layer"
     id="layer1"
     transform="translate(-107.875,-679.33503)">
    <g
       id="g3303"
       transform="translate(-9.7817868,29.335034)">
      <path
         style="fill:#f57900;fill-opacity:1;stroke:#f57900;stroke-width:3.99999976;stroke-miterlimit:4;stroke-opacity:1;stroke-dasharray:none"
         d="m 170.36491,708.47557 0,19.42654 c 25.10426,8.32566 41.84043,19.42655 52.99788,36.07787 l 5.57873,-2.77523 c -11.15746,-16.65132 -25.10426,-41.6283 -58.57661,-52.72918 z m 150.62555,0 c -33.47235,11.10088 -47.41915,36.07786 -58.5766,52.72918 l 5.57872,2.77523 c 11.15745,-16.65132 27.89362,-27.75221 52.99788,-36.07787 z m -150.62555,44.52494 c -19.53238,2.88955 -41.84043,19.30513 -50.20852,44.28211 8.36809,11.10087 30.68299,24.97697 50.20852,24.97697 19.52553,0 36.26171,-11.10088 47.41915,-24.97697 -8.36809,-22.20177 -33.71211,-30.08328 -47.54119,-27.52672 -13.82907,2.55656 -24.98222,13.65061 -27.77158,21.97627 8.36809,11.10088 19.52553,13.8761 27.89362,13.8761 8.36809,0 19.52553,-5.55044 25.10426,-13.8761 l -11.15746,-2.77521 c -5.57871,8.32566 -11.15744,8.32566 -13.9468,8.32566 -2.78937,0 -11.15745,0 -16.73617,-8.32566 2.78936,-5.55045 5.57872,-8.32566 16.73617,-11.10089 11.15745,-2.77522 30.22307,5.78953 36.26171,16.65132 -8.36809,11.10088 -22.31491,19.42654 -36.26171,19.42654 -13.94681,0 -30.68299,-8.32566 -39.05108,-19.42654 5.57873,-16.65132 22.31491,-30.52741 39.05108,-33.30264 16.73617,-2.77522 55.78724,16.65132 61.36597,27.75221 7.10898,-3.48553 6.50209,-3.93286 13.94681,-8.32566 7.44472,4.3928 6.83783,4.84013 13.94681,8.32566 5.57872,-11.10089 44.62979,-30.52743 61.36596,-27.75221 16.73618,2.77523 33.47235,16.65132 39.05108,33.30264 -8.36809,11.10088 -25.10426,19.42654 -39.05108,19.42654 -13.9468,0 -27.89362,-8.32566 -36.2617,-19.42654 6.03863,-10.86179 25.10426,-19.42654 36.2617,-16.65132 11.15746,2.77523 13.94682,5.55044 16.73618,11.10089 -5.57872,8.32566 -13.94681,8.32566 -16.73618,8.32566 -2.78936,0 -8.36808,0 -13.9468,-8.32566 l -11.15746,2.77521 c 5.57873,8.32566 16.73618,13.8761 25.10426,13.8761 8.36809,0 19.52554,-2.77522 27.89363,-13.8761 -2.78937,-8.32566 -13.94252,-19.41971 -27.77159,-21.97627 -13.82907,-2.55656 -39.1731,5.32495 -47.54119,27.52672 11.15745,13.87609 27.89362,24.97697 47.41915,24.97697 19.52554,0 41.84044,-13.8761 50.20852,-24.97697 -8.36808,-24.97698 -30.67614,-41.39256 -50.20852,-44.28211 -19.53237,-2.88955 -50.20851,10.97947 -75.31277,24.85556 -25.10426,-13.87609 -55.78725,-27.7522 -75.31278,-24.85556 z m 50.20852,58.1582 c -3.86448,3.84489 -4.73292,14.90893 0,19.42654 -5.57873,2.77522 -4.71724,15.66845 0,19.42655 l 25.10426,0 25.10426,0 c 4.71724,-3.7581 5.57872,-16.65133 0,-19.42655 4.73291,-4.51761 3.86447,-15.58165 0,-19.42654 l -25.10426,0 z m 13.94681,5.55044 8.36808,0 0,11.10088 -8.36808,0 c -11.15745,0 -11.15745,0.0879 -11.15745,-5.55044 0,-5.55044 0,-5.55044 11.15745,-5.55044 z m 13.94681,0 8.36809,0 c 11.15744,0 11.15744,-0.0879 11.15744,5.55044 0,5.63838 0,5.55044 -11.15744,5.55044 l -8.36809,0 z m -13.94681,16.65132 8.36808,0 0,11.10088 -8.36808,0 c -11.15745,0 -11.15745,0 -11.15745,-5.55044 0,-5.55044 0,-5.55044 11.15745,-5.55044 z m 13.94681,0 8.36809,0 c 11.15744,0 11.15744,0 11.15744,5.55044 0,5.55044 0,5.55044 -11.15744,5.55044 l -8.36809,0 z"
         id="path3305"
         inkscape:connector-curvature="0"
         sodipodi:nodetypes="ccccccccccccscscsccscscscscccscscscsccscscscsccccccccccccccscccsssccsccssscssscc" />
    </g>
  </g>
</svg>
